# Blender v2.81 (sub 16) OBJ File: 'untitled.blend'
# www.blender.org
mtllib untitled.mtl
o Cylinder
v 0.000000 -0.250000 -20.000000
v 0.000000 0.250000 -20.000000
v 17.320509 -0.250000 -9.999999
v 17.320509 0.250000 -9.999999
v 17.320507 -0.250000 10.000001
v 17.320507 0.250000 10.000001
v -0.000002 -0.250000 20.000000
v -0.000002 0.250000 20.000000
v -17.320509 -0.250000 9.999998
v -17.320509 0.250000 9.999998
v -17.320509 -0.250000 -9.999998
v -17.320509 0.250000 -9.999998
v 1.369093 0.250000 1.457938
v 1.369093 -0.250000 1.457938
v 1.274847 0.250000 1.541027
v 1.274847 -0.250000 1.541027
v -0.736251 0.250000 1.859552
v -0.736251 -0.250000 1.859552
v 0.497378 0.250000 1.937167
v 0.497378 -0.250000 1.937167
v 0.374761 0.250000 1.964575
v 0.374761 -0.250000 1.964575
v 0.618032 0.250000 1.902113
v 0.618032 -0.250000 1.902113
v 0.250664 0.250000 1.984230
v 0.250664 -0.250000 1.984230
v -0.374765 0.250000 1.964574
v -0.374765 -0.250000 1.964574
v -0.618036 0.250000 1.902112
v -0.618036 -0.250000 1.902112
v -0.250669 0.250000 1.984229
v -0.250669 -0.250000 1.984229
v -0.497382 0.250000 1.937165
v -0.497382 -0.250000 1.937165
v -0.000002 0.250000 2.000000
v -0.000002 -0.250000 2.000000
v 1.071652 0.250000 1.688657
v 1.071652 -0.250000 1.688657
v 1.175569 0.250000 1.618035
v 1.175569 -0.250000 1.618035
v 0.963506 0.250000 1.752614
v 0.963506 -0.250000 1.752614
v -0.125583 0.250000 1.996053
v -0.125583 -0.250000 1.996053
v 0.125579 0.250000 1.996053
v 0.125579 -0.250000 1.996053
v -0.125577 0.250000 -1.996054
v -0.125577 -0.250000 -1.996054
v -0.250662 0.250000 -1.984230
v -0.250662 -0.250000 -1.984230
v -0.963504 0.250000 -1.752615
v -0.963504 -0.250000 -1.752615
v -1.175567 0.250000 -1.618036
v -1.175567 -0.250000 -1.618036
v -1.071651 0.250000 -1.688658
v -1.071651 -0.250000 -1.688658
v -1.809653 0.250000 -0.851561
v -1.809653 -0.250000 -0.851561
v 0.000000 0.250000 -2.000000
v 0.000000 -0.250000 -2.000000
v -1.618032 0.250000 -1.175573
v -1.618032 -0.250000 -1.175573
v -1.752612 0.250000 -0.963510
v -1.752612 -0.250000 -0.963510
v -1.688654 0.250000 -1.071656
v -1.688654 -0.250000 -1.071656
v -0.374759 0.250000 -1.964575
v -0.374759 -0.250000 -1.964575
v -0.497376 0.250000 -1.937167
v -0.497376 -0.250000 -1.937167
v -0.618030 0.250000 -1.902114
v -0.618030 -0.250000 -1.902114
v -0.736245 0.250000 -1.859554
v -0.736245 -0.250000 -1.859554
v -1.369092 0.250000 -1.457940
v -1.369092 -0.250000 -1.457940
v -1.541024 0.250000 -1.274850
v -1.541024 -0.250000 -1.274850
v -1.274845 0.250000 -1.541029
v -1.274845 -0.250000 -1.541029
v -1.457935 0.250000 -1.369097
v -1.457935 -0.250000 -1.369097
v 1.541027 0.250000 -1.274848
v 1.541027 -0.250000 -1.274848
v 1.996053 0.250000 -0.125580
v 1.996053 -0.250000 -0.125580
v 1.618034 0.250000 -1.175570
v 1.618034 -0.250000 -1.175570
v 1.984229 0.250000 -0.250666
v 1.984229 -0.250000 -0.250666
v -1.175573 0.250000 1.618032
v -1.175573 -0.250000 1.618032
v 1.752613 0.250000 0.963508
v 1.752613 -0.250000 0.963508
v -1.274850 0.250000 1.541025
v -1.274850 -0.250000 1.541025
v 1.688655 0.250000 1.071655
v 1.688655 -0.250000 1.071655
v -1.618035 0.250000 1.175568
v -1.618035 -0.250000 1.175568
v 1.937166 0.250000 -0.497379
v 1.937166 -0.250000 -0.497379
v 1.902113 0.250000 -0.618033
v 1.902113 -0.250000 -0.618033
v 1.274848 0.250000 -1.541026
v 1.274848 -0.250000 -1.541026
v 1.175571 0.250000 -1.618034
v 1.175571 -0.250000 -1.618034
v 1.859553 0.250000 -0.736249
v 1.859553 -0.250000 -0.736249
v 1.964574 0.250000 -0.374762
v 1.964574 -0.250000 -0.374762
v 2.000000 0.250000 0.000001
v 2.000000 -0.250000 0.000001
v 1.964574 0.250000 0.374764
v 1.964574 -0.250000 0.374764
v 1.996053 0.250000 0.125582
v 1.996053 -0.250000 0.125582
v 1.984229 0.250000 0.250667
v 1.984229 -0.250000 0.250667
v 1.369094 0.250000 -1.457937
v 1.369094 -0.250000 -1.457937
v 1.071654 0.250000 -1.688656
v 1.071654 -0.250000 -1.688656
v 1.457937 0.250000 -1.369094
v 1.457937 -0.250000 -1.369094
v -1.457939 0.250000 1.369092
v -1.457939 -0.250000 1.369092
v -1.071656 0.250000 1.688654
v -1.071656 -0.250000 1.688654
v 0.851557 0.250000 1.809655
v 0.851557 -0.250000 1.809655
v -1.541028 0.250000 1.274846
v -1.541028 -0.250000 1.274846
v -1.369096 0.250000 1.457935
v -1.369096 -0.250000 1.457935
v 1.752614 0.250000 -0.963507
v 1.752614 -0.250000 -0.963507
v 1.688656 0.250000 -1.071653
v 1.688656 -0.250000 -1.071653
v 1.809654 0.250000 -0.851558
v 1.809654 -0.250000 -0.851558
v 1.859553 0.250000 0.736250
v 1.859553 -0.250000 0.736250
v 1.937166 0.250000 0.497381
v 1.937166 -0.250000 0.497381
v 1.809654 0.250000 0.851560
v 1.809654 -0.250000 0.851560
v 1.902113 0.250000 0.618035
v 1.902113 -0.250000 0.618035
v -0.851555 0.250000 -1.809656
v -0.851555 -0.250000 -1.809656
v -1.964575 0.250000 0.374760
v -1.964575 -0.250000 0.374760
v -1.984230 0.250000 0.250664
v -1.984230 -0.250000 0.250664
v -1.996053 0.250000 0.125578
v -1.996053 -0.250000 0.125578
v -1.902112 0.250000 -0.618037
v -1.902112 -0.250000 -0.618037
v -1.984229 0.250000 -0.250669
v -1.984229 -0.250000 -0.250669
v -1.859552 0.250000 -0.736252
v -1.859552 -0.250000 -0.736252
v -1.996053 0.250000 -0.125584
v -1.996053 -0.250000 -0.125584
v -1.902114 0.250000 0.618032
v -1.902114 -0.250000 0.618032
v -1.859554 0.250000 0.736247
v -1.859554 -0.250000 0.736247
v -0.963510 0.250000 1.752612
v -0.963510 -0.250000 1.752612
v -1.937167 0.250000 0.497377
v -1.937167 -0.250000 0.497377
v 1.541026 0.250000 1.274849
v 1.541026 -0.250000 1.274849
v 1.457936 0.250000 1.369095
v 1.457936 -0.250000 1.369095
v 1.618033 0.250000 1.175571
v 1.618033 -0.250000 1.175571
v 0.736247 0.250000 1.859553
v 0.736247 -0.250000 1.859553
v -0.851561 0.250000 1.809653
v -0.851561 -0.250000 1.809653
v -1.964574 0.250000 -0.374766
v -1.964574 -0.250000 -0.374766
v 0.736249 0.250000 -1.859553
v 0.736249 -0.250000 -1.859553
v 0.618034 0.250000 -1.902113
v 0.618034 -0.250000 -1.902113
v -1.937165 0.250000 -0.497383
v -1.937165 -0.250000 -0.497383
v -1.752614 0.250000 0.963505
v -1.752614 -0.250000 0.963505
v -1.688657 0.250000 1.071651
v -1.688657 -0.250000 1.071651
v -1.809655 0.250000 0.851556
v -1.809655 -0.250000 0.851556
v 0.125581 0.250000 -1.996053
v 0.125581 -0.250000 -1.996053
v 0.374763 0.250000 -1.964574
v 0.374763 -0.250000 -1.964574
v 0.250666 0.250000 -1.984229
v 0.250666 -0.250000 -1.984229
v -2.000000 0.250000 -0.000003
v -2.000000 -0.250000 -0.000003
v 0.497380 0.250000 -1.937166
v 0.497380 -0.250000 -1.937166
v 0.851559 0.250000 -1.809654
v 0.851559 -0.250000 -1.809654
v 0.963507 0.250000 -1.752613
v 0.963507 -0.250000 -1.752613
vt 1.000000 0.500000
vt 1.000000 1.000000
vt 0.833333 1.000000
vt 0.833333 0.500000
vt 0.666667 1.000000
vt 0.666667 0.500000
vt 0.500000 1.000000
vt 0.500000 0.500000
vt 0.333333 1.000000
vt 0.333333 0.500000
vt 0.457846 0.370000
vt 0.250000 0.490000
vt 0.042154 0.370000
vt 0.226000 0.250000
vt 0.226047 0.251507
vt 0.226189 0.253008
vt 0.226425 0.254497
vt 0.226754 0.255969
vt 0.227175 0.257416
vt 0.227685 0.258835
vt 0.228284 0.260219
vt 0.228969 0.261562
vt 0.229736 0.262860
vt 0.230584 0.264107
vt 0.231508 0.265298
vt 0.232505 0.266429
vt 0.233571 0.267495
vt 0.234702 0.268492
vt 0.235893 0.269416
vt 0.237140 0.270264
vt 0.238438 0.271031
vt 0.239781 0.271716
vt 0.241165 0.272315
vt 0.242584 0.272825
vt 0.244031 0.273246
vt 0.245503 0.273575
vt 0.246992 0.273811
vt 0.248493 0.273953
vt 0.250000 0.274000
vt 0.251507 0.273953
vt 0.253008 0.273811
vt 0.254497 0.273575
vt 0.255969 0.273246
vt 0.257416 0.272825
vt 0.258835 0.272315
vt 0.260219 0.271716
vt 0.261562 0.271031
vt 0.262860 0.270264
vt 0.264107 0.269416
vt 0.265298 0.268492
vt 0.266429 0.267495
vt 0.267495 0.266429
vt 0.268492 0.265298
vt 0.269416 0.264107
vt 0.270264 0.262860
vt 0.271031 0.261562
vt 0.271716 0.260219
vt 0.272315 0.258835
vt 0.272825 0.257416
vt 0.273246 0.255969
vt 0.273575 0.254497
vt 0.273811 0.253008
vt 0.273953 0.251507
vt 0.274000 0.250000
vt 0.457846 0.130000
vt 0.166667 1.000000
vt 0.166667 0.500000
vt -0.000000 1.000000
vt -0.000000 0.500000
vt 0.750000 0.490000
vt 0.957846 0.370000
vt 0.774000 0.250000
vt 0.773953 0.251507
vt 0.773811 0.253008
vt 0.773575 0.254497
vt 0.773246 0.255969
vt 0.772825 0.257416
vt 0.772315 0.258835
vt 0.771716 0.260219
vt 0.771031 0.261562
vt 0.770264 0.262860
vt 0.769416 0.264107
vt 0.768492 0.265298
vt 0.767495 0.266429
vt 0.766429 0.267495
vt 0.765298 0.268492
vt 0.764107 0.269416
vt 0.762860 0.270264
vt 0.761562 0.271031
vt 0.760219 0.271716
vt 0.758835 0.272315
vt 0.757416 0.272825
vt 0.755969 0.273246
vt 0.754497 0.273575
vt 0.753008 0.273811
vt 0.751507 0.273953
vt 0.750000 0.274000
vt 0.748493 0.273953
vt 0.746992 0.273811
vt 0.745503 0.273575
vt 0.744031 0.273246
vt 0.742584 0.272825
vt 0.741165 0.272315
vt 0.739781 0.271716
vt 0.738438 0.271031
vt 0.737140 0.270264
vt 0.735893 0.269416
vt 0.734702 0.268492
vt 0.733571 0.267495
vt 0.732505 0.266429
vt 0.731508 0.265298
vt 0.730584 0.264107
vt 0.729736 0.262860
vt 0.728969 0.261562
vt 0.728284 0.260219
vt 0.727685 0.258835
vt 0.727175 0.257416
vt 0.726754 0.255969
vt 0.726425 0.254497
vt 0.726189 0.253008
vt 0.726047 0.251507
vt 0.726000 0.250000
vt 0.542154 0.370000
vt 0.960000 0.625000
vt 0.960000 0.875000
vt 0.970000 0.875000
vt 0.970000 0.625000
vt 0.190001 0.625000
vt 0.190001 0.875000
vt 0.200001 0.875000
vt 0.200001 0.625000
vt 0.560000 0.625000
vt 0.560000 0.875000
vt 0.570000 0.875000
vt 0.570000 0.625000
vt 0.210001 0.875000
vt 0.210001 0.625000
vt 0.400001 0.625000
vt 0.400001 0.875000
vt 0.410001 0.875000
vt 0.410001 0.625000
vt 0.690000 0.625000
vt 0.690000 0.875000
vt 0.700000 0.875000
vt 0.700000 0.625000
vt 0.710000 0.625000
vt 0.710000 0.875000
vt 0.720000 0.875000
vt 0.720000 0.625000
vt 0.750000 0.625000
vt 0.750000 0.875000
vt 0.760000 0.875000
vt 0.760000 0.625000
vt 0.150001 0.625000
vt 0.150001 0.875000
vt 0.160001 0.875000
vt 0.160001 0.625000
vt 0.740000 0.625000
vt 0.740000 0.875000
vt 0.300001 0.625000
vt 0.300001 0.875000
vt 0.310001 0.875000
vt 0.310001 0.625000
vt 0.850000 0.625000
vt 0.850000 0.875000
vt 0.860000 0.875000
vt 0.860000 0.625000
vt 0.780000 0.625000
vt 0.780000 0.875000
vt 0.790000 0.875000
vt 0.790000 0.625000
vt 0.940000 0.625000
vt 0.940000 0.875000
vt 0.950000 0.875000
vt 0.950000 0.625000
vt 0.490000 0.625000
vt 0.490000 0.875000
vt 0.500000 0.875000
vt 0.500000 0.625000
vt 0.730000 0.625000
vt 0.730000 0.875000
vt 0.340001 0.625000
vt 0.340001 0.875000
vt 0.350001 0.875000
vt 0.350001 0.625000
vt 0.590000 0.625000
vt 0.590000 0.875000
vt 0.600000 0.875000
vt 0.600000 0.625000
vt 0.480000 0.625000
vt 0.480000 0.875000
vt 0.390001 0.625000
vt 0.390001 0.875000
vt 0.170001 0.625000
vt 0.170001 0.875000
vt 0.180001 0.875000
vt 0.180001 0.625000
vt 0.460001 0.625000
vt 0.460001 0.875000
vt 0.470001 0.875000
vt 0.470001 0.625000
vt 0.260001 0.625000
vt 0.260001 0.875000
vt 0.270001 0.875000
vt 0.270001 0.625000
vt 0.770000 0.875000
vt 0.770000 0.625000
vt 0.120001 0.625000
vt 0.120001 0.875000
vt 0.130001 0.875000
vt 0.130001 0.625000
vt 0.273953 0.248493
vt 0.273811 0.246992
vt 0.273575 0.245503
vt 0.273246 0.244031
vt 0.272825 0.242584
vt 0.272315 0.241165
vt 0.271716 0.239781
vt 0.271031 0.238438
vt 0.270264 0.237140
vt 0.269416 0.235893
vt 0.268492 0.234702
vt 0.267495 0.233571
vt 0.266429 0.232505
vt 0.265298 0.231508
vt 0.264107 0.230584
vt 0.262860 0.229736
vt 0.261562 0.228969
vt 0.260219 0.228284
vt 0.258835 0.227685
vt 0.257416 0.227175
vt 0.255969 0.226754
vt 0.254497 0.226425
vt 0.253008 0.226189
vt 0.251507 0.226047
vt 0.250000 0.226000
vt 0.248493 0.226047
vt 0.246992 0.226189
vt 0.245503 0.226425
vt 0.244031 0.226754
vt 0.242584 0.227175
vt 0.241165 0.227685
vt 0.239781 0.228284
vt 0.238438 0.228969
vt 0.237140 0.229736
vt 0.235893 0.230584
vt 0.234702 0.231508
vt 0.233571 0.232505
vt 0.232505 0.233571
vt 0.231508 0.234702
vt 0.230584 0.235893
vt 0.229736 0.237140
vt 0.228969 0.238438
vt 0.228284 0.239781
vt 0.227685 0.241165
vt 0.227175 0.242584
vt 0.226754 0.244031
vt 0.226425 0.245503
vt 0.226189 0.246992
vt 0.226047 0.248493
vt 0.042154 0.130000
vt 0.250000 0.010000
vt 0.040001 0.625000
vt 0.040001 0.875000
vt 0.050001 0.875000
vt 0.050001 0.625000
vt 0.360001 0.875000
vt 0.360001 0.625000
vt 0.640000 0.625000
vt 0.640000 0.875000
vt 0.650000 0.875000
vt 0.650000 0.625000
vt 0.510000 0.875000
vt 0.510000 0.625000
vt 0.080001 0.625000
vt 0.080001 0.875000
vt 0.090001 0.875000
vt 0.090001 0.625000
vt 0.610000 0.625000
vt 0.610000 0.875000
vt 0.620000 0.875000
vt 0.620000 0.625000
vt 0.980000 0.875000
vt 0.980000 0.625000
vt 0.820000 0.625000
vt 0.820000 0.875000
vt 0.830000 0.875000
vt 0.830000 0.625000
vt 0.070001 0.625000
vt 0.070001 0.875000
vt 0.060001 0.625000
vt 0.060001 0.875000
vt 0.990000 0.875000
vt 0.990000 0.625000
vt 0.660000 0.875000
vt 0.660000 0.625000
vt 0.420001 0.875000
vt 0.420001 0.625000
vt 0.550000 0.625000
vt 0.550000 0.875000
vt 0.630000 0.625000
vt 0.630000 0.875000
vt 0.010001 0.625000
vt 0.010001 0.875000
vt 0.020001 0.875000
vt 0.020001 0.625000
vt 0.430001 0.875000
vt 0.430001 0.625000
vt 0.930000 0.625000
vt 0.930000 0.875000
vt 0.230001 0.625000
vt 0.230001 0.875000
vt 0.240001 0.875000
vt 0.240001 0.625000
vt 0.030001 0.875000
vt 0.030001 0.625000
vt 0.840000 0.625000
vt 0.840000 0.875000
vt 0.540000 0.625000
vt 0.540000 0.875000
vt 0.670000 0.875000
vt 0.670000 0.625000
vt 0.450001 0.625000
vt 0.450001 0.875000
vt 0.440001 0.625000
vt 0.440001 0.875000
vt 0.140001 0.875000
vt 0.140001 0.625000
vt 0.280001 0.875000
vt 0.280001 0.625000
vt 0.250001 0.875000
vt 0.250001 0.625000
vt 0.800000 0.625000
vt 0.800000 0.875000
vt 0.810000 0.875000
vt 0.810000 0.625000
vt 0.100001 0.875000
vt 0.100001 0.625000
vt 0.220001 0.625000
vt 0.220001 0.875000
vt 0.726047 0.248493
vt 0.726189 0.246992
vt 0.726425 0.245503
vt 0.726754 0.244031
vt 0.727175 0.242584
vt 0.727685 0.241165
vt 0.728284 0.239781
vt 0.728969 0.238438
vt 0.729736 0.237140
vt 0.730583 0.235893
vt 0.731508 0.234702
vt 0.732505 0.233571
vt 0.733571 0.232505
vt 0.734702 0.231508
vt 0.735893 0.230584
vt 0.737140 0.229736
vt 0.738438 0.228969
vt 0.739781 0.228284
vt 0.741165 0.227685
vt 0.742584 0.227175
vt 0.744031 0.226754
vt 0.745503 0.226425
vt 0.746992 0.226189
vt 0.748493 0.226047
vt 0.750000 0.226000
vt 0.751507 0.226047
vt 0.753008 0.226189
vt 0.754497 0.226425
vt 0.755969 0.226754
vt 0.757416 0.227175
vt 0.758835 0.227685
vt 0.760219 0.228284
vt 0.761562 0.228969
vt 0.762860 0.229736
vt 0.764107 0.230584
vt 0.765298 0.231508
vt 0.766429 0.232505
vt 0.767495 0.233571
vt 0.768492 0.234702
vt 0.769416 0.235893
vt 0.770264 0.237140
vt 0.771031 0.238438
vt 0.771716 0.239781
vt 0.772315 0.241165
vt 0.772825 0.242584
vt 0.773246 0.244031
vt 0.773575 0.245503
vt 0.773811 0.246992
vt 0.773953 0.248493
vt 0.957846 0.130000
vt 0.750000 0.010000
vt 0.542154 0.130000
vt 0.290001 0.625000
vt 0.290001 0.875000
vt 0.110001 0.625000
vt 0.110001 0.875000
vt 0.880000 0.625000
vt 0.880000 0.875000
vt 0.890000 0.875000
vt 0.890000 0.625000
vt 0.920000 0.625000
vt 0.920000 0.875000
vt 0.520000 0.875000
vt 0.520000 0.625000
vt 0.870000 0.875000
vt 0.870000 0.625000
vt 0.680000 0.625000
vt 0.680000 0.875000
vt 0.530000 0.875000
vt 0.530000 0.625000
vt 0.900000 0.625000
vt 0.900000 0.875000
vt 0.910000 0.875000
vt 0.910000 0.625000
vt 0.580000 0.625000
vt 0.580000 0.875000
vt 0.320001 0.625000
vt 0.320001 0.875000
vt 0.330001 0.875000
vt 0.330001 0.625000
vt 0.370001 0.625000
vt 0.370001 0.875000
vt 0.380001 0.875000
vt 0.380001 0.625000
vt 1.000000 0.875000
vt 1.000000 0.625000
vt 0.000001 0.625000
vt 0.000001 0.875000
vn 0.5000 0.0000 -0.8660
vn 1.0000 0.0000 0.0000
vn 0.5000 0.0000 0.8660
vn -0.5000 0.0000 0.8660
vn 0.0000 1.0000 0.0000
vn -1.0000 0.0000 0.0000
vn -0.5000 0.0000 -0.8660
vn 0.0000 -1.0000 0.0000
vn -0.2181 0.0000 0.9759
vn 0.9409 0.0000 0.3387
vn -0.3971 0.0000 -0.9178
vn 0.9603 0.0000 0.2790
vn 0.5621 0.0000 -0.8271
vn -0.9409 0.0000 -0.3387
vn -0.9759 0.0000 -0.2181
vn -0.9995 0.0000 0.0314
vn 0.8271 0.0000 0.5621
vn -0.9995 0.0000 -0.0314
vn 0.9409 0.0000 -0.3387
vn -0.7902 0.0000 0.6129
vn -0.9759 0.0000 0.2181
vn -0.3387 0.0000 0.9409
vn 0.0314 0.0000 -0.9995
vn -0.9956 0.0000 -0.0941
vn 0.8271 0.0000 -0.5621
vn -0.5621 0.0000 -0.8271
vn 0.0941 0.0000 -0.9956
vn 0.6129 0.0000 -0.7902
vn 0.8910 0.0000 0.4540
vn 0.2181 0.0000 -0.9759
vn 0.9956 0.0000 -0.0941
vn -0.9956 0.0000 0.0941
vn 0.7071 0.0000 0.7071
vn -0.9877 0.0000 0.1564
vn 0.2790 0.0000 0.9603
vn 0.7902 0.0000 -0.6129
vn -0.7902 0.0000 -0.6129
vn -0.0314 0.0000 -0.9995
vn -0.2790 0.0000 0.9603
vn 0.5090 0.0000 0.8607
vn -0.6613 0.0000 -0.7501
vn -0.1564 0.0000 0.9877
vn -0.8910 0.0000 0.4540
vn 0.4540 0.0000 0.8910
vn 0.3971 0.0000 0.9178
vn -0.0941 0.0000 0.9956
vn 0.1564 0.0000 -0.9877
vn -0.8271 0.0000 -0.5621
vn 0.5090 0.0000 -0.8607
vn -0.3387 0.0000 -0.9409
vn -0.7501 0.0000 -0.6613
vn 0.0941 0.0000 0.9956
vn 0.4540 0.0000 -0.8910
vn -0.3971 0.0000 0.9178
vn 0.9956 0.0000 0.0941
vn 0.1564 0.0000 0.9877
vn -0.8271 0.0000 0.5621
vn 0.9178 0.0000 0.3971
vn -0.2790 0.0000 -0.9603
vn -0.8607 0.0000 -0.5090
vn 0.2790 0.0000 -0.9603
vn 0.3387 0.0000 -0.9409
vn -0.9877 0.0000 -0.1564
vn 0.7501 0.0000 0.6613
vn 0.9877 0.0000 -0.1564
vn 0.9995 0.0000 0.0314
vn -0.9409 0.0000 0.3387
vn 0.5621 0.0000 0.8271
vn -0.8607 0.0000 0.5090
vn 0.2181 0.0000 0.9759
vn 0.3971 0.0000 -0.9178
vn 0.9877 0.0000 0.1564
vn 0.9603 0.0000 -0.2790
vn 0.6613 0.0000 0.7501
vn -0.6613 0.0000 0.7501
vn -0.4540 0.0000 0.8910
vn -0.0941 0.0000 -0.9956
vn -0.9178 0.0000 0.3971
vn -0.7501 0.0000 0.6613
vn -0.9178 0.0000 -0.3971
vn 0.6129 0.0000 0.7902
vn 0.9759 0.0000 -0.2181
vn -0.9603 0.0000 -0.2790
vn -0.1564 0.0000 -0.9877
vn -0.5621 0.0000 0.8271
vn -0.5090 0.0000 -0.8607
vn 0.9759 0.0000 0.2181
vn -0.4540 0.0000 -0.8910
vn -0.6129 0.0000 -0.7902
vn 0.8910 0.0000 -0.4540
vn -0.6129 0.0000 0.7902
vn -0.2181 0.0000 -0.9759
vn 0.7071 0.0000 -0.7071
vn -0.7071 0.0000 -0.7071
vn -0.8910 0.0000 -0.4540
vn -0.0314 0.0000 0.9995
vn -0.7071 0.0000 0.7071
vn 0.0314 0.0000 0.9995
vn -0.9603 0.0000 0.2790
vn 0.3387 0.0000 0.9409
vn 0.6613 0.0000 -0.7501
vn -0.5090 0.0000 0.8607
vn 0.9178 0.0000 -0.3971
vn 0.8607 0.0000 -0.5090
vn 0.9995 0.0000 -0.0314
vn 0.8607 0.0000 0.5090
vn 0.7501 0.0000 -0.6613
vn 0.7902 0.0000 0.6129
usemtl None
s off
f 1/1/1 2/2/1 4/3/1 3/4/1
f 3/4/2 4/3/2 6/5/2 5/6/2
f 5/6/3 6/5/3 8/7/3 7/8/3
f 7/8/4 8/7/4 10/9/4 9/10/4
f 4/11/5 2/12/5 12/13/5 205/14/5 165/15/5 161/16/5 185/17/5 191/18/5 159/19/5 163/20/5 57/21/5 63/22/5 65/23/5 61/24/5 77/25/5 81/26/5 75/27/5 79/28/5 53/29/5 55/30/5 51/31/5 151/32/5 73/33/5 71/34/5 69/35/5 67/36/5 49/37/5 47/38/5 59/39/5 199/40/5 203/41/5 201/42/5 207/43/5 189/44/5 187/45/5 209/46/5 211/47/5 123/48/5 107/49/5 105/50/5 121/51/5 125/52/5 83/53/5 87/54/5 139/55/5 137/56/5 141/57/5 109/58/5 103/59/5 101/60/5 111/61/5 89/62/5 85/63/5 113/64/5 6/65/5
f 9/10/6 10/9/6 12/66/6 11/67/6
f 11/67/7 12/66/7 2/68/7 1/69/7
f 1/70/8 3/71/8 114/72/8 86/73/8 90/74/8 112/75/8 102/76/8 104/77/8 110/78/8 142/79/8 138/80/8 140/81/8 88/82/8 84/83/8 126/84/8 122/85/8 106/86/8 108/87/8 124/88/8 212/89/8 210/90/8 188/91/8 190/92/8 208/93/8 202/94/8 204/95/8 200/96/8 60/97/8 48/98/8 50/99/8 68/100/8 70/101/8 72/102/8 74/103/8 152/104/8 52/105/8 56/106/8 54/107/8 80/108/8 76/109/8 82/110/8 78/111/8 62/112/8 66/113/8 64/114/8 58/115/8 164/116/8 160/117/8 192/118/8 186/119/8 162/120/8 166/121/8 206/122/8 11/123/8
f 208/124/9 207/125/9 201/126/9 202/127/9
f 164/128/10 163/129/10 159/130/10 160/131/10
f 182/132/11 181/133/11 131/134/11 132/135/11
f 160/131/12 159/130/12 191/136/12 192/137/12
f 92/138/13 91/139/13 129/140/13 130/141/13
f 144/142/14 143/143/14 149/144/14 150/145/14
f 146/146/15 145/147/15 115/148/15 116/149/15
f 114/150/16 113/151/16 85/152/16 86/153/16
f 62/154/17 61/155/17 65/156/17 66/157/17
f 118/158/18 117/159/18 113/151/18 114/150/18
f 168/160/19 167/161/19 169/162/19 170/163/19
f 88/164/20 87/165/20 83/166/20 84/167/20
f 112/168/21 111/169/21 101/170/21 102/171/21
f 188/172/22 187/173/22 189/174/22 190/175/22
f 44/176/23 43/177/23 35/178/23 36/179/23
f 120/180/24 119/181/24 117/159/24 118/158/24
f 196/182/25 195/183/25 99/184/25 100/185/25
f 38/186/26 37/187/26 39/188/26 40/189/26
f 32/190/27 31/191/27 43/177/27 44/176/27
f 96/192/28 95/193/28 91/139/28 92/138/28
f 64/194/29 63/195/29 57/196/29 58/197/29
f 34/198/30 33/199/30 27/200/30 28/201/30
f 158/202/31 157/203/31 155/204/31 156/205/31
f 86/153/32 85/152/32 89/206/32 90/207/32
f 76/208/33 75/209/33 81/210/33 82/211/33
f 90/207/34 89/206/34 111/169/34 112/168/34
f 6/65/5 113/64/5 117/212/5 119/213/5 115/214/5 145/215/5 149/216/5 143/217/5 147/218/5 93/219/5 97/220/5 179/221/5 175/222/5 177/223/5 13/224/5 15/225/5 39/226/5 37/227/5 41/228/5 131/229/5 181/230/5 23/231/5 19/232/5 21/233/5 25/234/5 45/235/5 35/236/5 43/237/5 31/238/5 27/239/5 33/240/5 29/241/5 17/242/5 183/243/5 171/244/5 129/245/5 91/246/5 95/247/5 135/248/5 127/249/5 133/250/5 99/251/5 195/252/5 193/253/5 197/254/5 169/255/5 167/256/5 173/257/5 153/258/5 155/259/5 157/260/5 205/14/5 12/13/5 10/261/5 8/262/5
f 70/263/35 69/264/35 71/265/35 72/266/35
f 100/185/36 99/184/36 133/267/36 134/268/36
f 176/269/37 175/270/37 179/271/37 180/272/37
f 36/179/38 35/178/38 45/273/38 46/274/38
f 190/175/39 189/174/39 207/125/39 208/124/39
f 52/275/40 51/276/40 55/277/40 56/278/40
f 16/279/41 15/280/41 13/281/41 14/282/41
f 202/127/42 201/126/42 203/283/42 204/284/42
f 142/285/43 141/286/43 137/287/43 138/288/43
f 152/289/44 151/290/44 51/276/44 52/275/44
f 74/291/45 73/292/45 151/290/45 152/289/45
f 204/284/46 203/283/46 199/293/46 200/294/46
f 28/201/47 27/200/47 31/191/47 32/190/47
f 180/272/48 179/271/48 97/295/48 98/296/48
f 130/141/49 129/140/49 171/297/49 172/298/49
f 24/299/50 23/300/50 181/133/50 182/132/50
f 178/301/51 177/302/51 175/270/51 176/269/51
f 48/303/52 47/304/52 49/305/52 50/306/52
f 172/298/53 171/297/53 183/307/53 184/308/53
f 210/309/54 209/310/54 187/173/54 188/172/54
f 162/311/55 161/312/55 165/313/55 166/314/55
f 50/306/56 49/305/56 67/315/56 68/316/56
f 140/317/57 139/318/57 87/165/57 88/164/57
f 58/197/58 57/196/58 163/129/58 164/128/58
f 20/319/59 19/320/59 23/300/59 24/299/59
f 98/296/60 97/295/60 93/321/60 94/322/60
f 30/323/61 29/324/61 33/199/61 34/198/61
f 18/325/62 17/326/62 29/324/62 30/323/62
f 116/149/63 115/148/63 119/181/63 120/180/63
f 82/211/64 81/210/64 77/327/64 78/328/64
f 156/205/65 155/204/65 153/329/65 154/330/65
f 166/314/66 165/313/66 205/331/66 206/332/66
f 104/333/67 103/334/67 109/335/67 110/336/67
f 56/278/68 55/277/68 53/337/68 54/338/68
f 138/288/69 137/287/69 139/318/69 140/317/69
f 68/316/70 67/315/70 69/264/70 70/263/70
f 184/308/71 183/307/71 17/326/71 18/325/71
f 186/339/72 185/340/72 161/312/72 162/311/72
f 11/123/8 206/122/8 158/341/8 156/342/8 154/343/8 174/344/8 168/345/8 170/346/8 198/347/8 194/348/8 196/349/8 100/350/8 134/351/8 128/352/8 136/353/8 96/354/8 92/355/8 130/356/8 172/357/8 184/358/8 18/359/8 30/360/8 34/361/8 28/362/8 32/363/8 44/364/8 36/365/8 46/366/8 26/367/8 22/368/8 20/369/8 24/370/8 182/371/8 132/372/8 42/373/8 38/374/8 40/375/8 16/376/8 14/377/8 178/378/8 176/379/8 180/380/8 98/381/8 94/382/8 148/383/8 144/384/8 150/385/8 146/386/8 116/387/8 120/388/8 118/389/8 114/72/8 3/71/8 5/390/8 7/391/8 9/392/8
f 174/393/73 173/394/73 167/161/73 168/160/73
f 80/395/74 79/396/74 75/209/74 76/208/74
f 122/397/75 121/398/75 105/399/75 106/400/75
f 212/401/76 211/402/76 209/310/76 210/309/76
f 46/274/77 45/273/77 25/403/77 26/404/77
f 110/336/78 109/335/78 141/286/78 142/285/78
f 84/167/79 83/166/79 125/405/79 126/406/79
f 148/407/80 147/408/80 143/143/80 144/142/80
f 54/338/81 53/337/81 79/396/81 80/395/81
f 154/330/82 153/329/82 173/394/82 174/393/82
f 150/145/83 149/144/83 145/147/83 146/146/83
f 26/404/84 25/403/84 21/409/84 22/410/84
f 108/411/85 107/412/85 123/413/85 124/414/85
f 42/415/86 41/416/86 37/187/86 38/186/86
f 192/137/87 191/136/87 185/340/87 186/339/87
f 132/135/88 131/134/88 41/416/88 42/415/88
f 40/189/89 39/188/89 15/280/89 16/279/89
f 198/417/90 197/418/90 193/419/90 194/420/90
f 106/400/91 105/399/91 107/412/91 108/411/91
f 22/410/92 21/409/92 19/320/92 20/319/92
f 128/421/93 127/422/93 135/423/93 136/424/93
f 14/282/94 13/281/94 177/302/94 178/301/94
f 94/322/95 93/321/95 147/408/95 148/407/95
f 200/294/96 199/293/96 59/425/96 60/426/96
f 126/406/97 125/405/97 121/398/97 122/397/97
f 60/427/98 59/428/98 47/304/98 48/303/98
f 102/171/99 101/170/99 103/334/99 104/333/99
f 72/266/100 71/265/100 73/292/100 74/291/100
f 136/424/101 135/423/101 95/193/101 96/192/101
f 124/414/102 123/413/102 211/402/102 212/401/102
f 170/163/103 169/162/103 197/418/103 198/417/103
f 194/420/104 193/419/104 195/183/104 196/182/104
f 206/332/105 205/331/105 157/203/105 158/202/105
f 66/157/106 65/156/106 63/195/106 64/194/106
f 134/268/107 133/267/107 127/422/107 128/421/107
f 78/328/108 77/327/108 61/155/108 62/154/108
